<svg xmlns="http://www.w3.org/2000/svg" width="1920" height="384" viewBox="0 0 1920 384">
  <rect width="1920" height="384" fill="#161C23"/>
  <g transform="translate(795 114.69999999999999) scale(0.4) translate(302 -28)"><rect x="-302" y="28" width="244" height="244" rx="55.28125" fill="#161C23"/><rect x="-249.578125" y="92.8125" width="36.854166666666664" height="22.875" rx="11.4375" fill="#E8A13D"/><rect x="-198.42708333333334" y="92.8125" width="36.854166666666664" height="22.875" rx="11.4375" fill="#E8A13D"/><rect x="-147.27604166666669" y="92.8125" width="36.854166666666664" height="22.875" rx="11.4375" fill="#E8A13D"/><rect x="-249.578125" y="138.5625" width="139.15625" height="22.875" rx="11.4375" fill="#DCE3EB"/><rect x="-249.578125" y="184.3125" width="95.3125" height="22.875" rx="11.4375" fill="#DCE3EB"/><g fill="none" stroke="#FAFAF8" stroke-width="30" stroke-linecap="round"><path d="M 0 80 L 0 262"/><circle cx="60" cy="140" r="60"/><path d="M 154 38 L 154 200"/><circle cx="248" cy="140" r="60"/><path d="M 308 80 L 308 200"/><path d="M 348 80 L 348 200"/><path d="M 388 80 L 388 200"/><path d="M 388 140 A 60 60 0 0 1 508 140"/><path d="M 508 140 L 508 200"/></g><circle cx="348" cy="41" r="17" fill="#E8A13D"/></g>
  <text x="960" y="263.36" font-family="-apple-system, BlinkMacSystemFont, &#39;SF Pro Text&#39;, &#39;Segoe UI&#39;, Roboto, &#39;Helvetica Neue&#39;, Arial, sans-serif" font-size="27" font-weight="500" fill="#DCE3EB" text-anchor="middle" letter-spacing="0.5">The Git-native CMS</text>
</svg>