<svg xmlns="http://www.w3.org/2000/svg" viewBox="-334 -4 889 308"><rect x="-302" y="28" width="244" height="244" rx="55.28125" fill="#161C23"/><rect x="-249.578125" y="92.8125" width="36.854166666666664" height="22.875" rx="11.4375" fill="#E8A13D"/><rect x="-198.42708333333334" y="92.8125" width="36.854166666666664" height="22.875" rx="11.4375" fill="#E8A13D"/><rect x="-147.27604166666669" y="92.8125" width="36.854166666666664" height="22.875" rx="11.4375" fill="#E8A13D"/><rect x="-249.578125" y="138.5625" width="139.15625" height="22.875" rx="11.4375" fill="#DCE3EB"/><rect x="-249.578125" y="184.3125" width="95.3125" height="22.875" rx="11.4375" fill="#DCE3EB"/><g fill="none" stroke="#161C23" stroke-width="30" stroke-linecap="round"><path d="M 0 80 L 0 262"/><circle cx="60" cy="140" r="60"/><path d="M 154 38 L 154 200"/><circle cx="248" cy="140" r="60"/><path d="M 308 80 L 308 200"/><path d="M 348 80 L 348 200"/><path d="M 388 80 L 388 200"/><path d="M 388 140 A 60 60 0 0 1 508 140"/><path d="M 508 140 L 508 200"/></g><circle cx="348" cy="41" r="17" fill="#B26205"/></svg>