<svg xmlns="http://www.w3.org/2000/svg" width="1200" height="630" viewBox="0 0 1200 630">
  <rect width="1200" height="630" fill="#FAFAF8"/>
  <g transform="translate(90 150) scale(0.62) translate(302 -28)"><rect x="-302" y="28" width="244" height="244" rx="55.28125" fill="#161C23"/><rect x="-249.578125" y="92.8125" width="36.854166666666664" height="22.875" rx="11.4375" fill="#E8A13D"/><rect x="-198.42708333333334" y="92.8125" width="36.854166666666664" height="22.875" rx="11.4375" fill="#E8A13D"/><rect x="-147.27604166666669" y="92.8125" width="36.854166666666664" height="22.875" rx="11.4375" fill="#E8A13D"/><rect x="-249.578125" y="138.5625" width="139.15625" height="22.875" rx="11.4375" fill="#DCE3EB"/><rect x="-249.578125" y="184.3125" width="95.3125" height="22.875" rx="11.4375" fill="#DCE3EB"/><g fill="none" stroke="#161C23" stroke-width="30" stroke-linecap="round"><path d="M 0 80 L 0 262"/><circle cx="60" cy="140" r="60"/><path d="M 154 38 L 154 200"/><circle cx="248" cy="140" r="60"/><path d="M 308 80 L 308 200"/><path d="M 348 80 L 348 200"/><path d="M 388 80 L 388 200"/><path d="M 388 140 A 60 60 0 0 1 508 140"/><path d="M 508 140 L 508 200"/></g><circle cx="348" cy="41" r="17" fill="#B26205"/></g>
  <text x="94" y="383.28" font-family="-apple-system, BlinkMacSystemFont, &#39;SF Pro Text&#39;, &#39;Segoe UI&#39;, Roboto, &#39;Helvetica Neue&#39;, Arial, sans-serif" font-size="40" font-weight="600" fill="#161C23" text-anchor="start" letter-spacing="0">The Git-native CMS</text>
  <text x="94" y="427.28" font-family="-apple-system, BlinkMacSystemFont, &#39;SF Pro Text&#39;, &#39;Segoe UI&#39;, Roboto, &#39;Helvetica Neue&#39;, Arial, sans-serif" font-size="25" font-weight="400" fill="#46525E" text-anchor="start" letter-spacing="0">Your content is plain files — Markdown in, website out.</text>
  <text x="94" y="481.28" font-family="ui-monospace, &#39;SF Mono&#39;, &#39;SFMono-Regular&#39;, Menlo, &#39;Cascadia Code&#39;, Consolas, monospace" font-size="21" font-weight="600" fill="#B26205" text-anchor="start" letter-spacing="0">plain-cms.com</text>
  <rect x="760" y="150" width="350" height="330" rx="16" fill="#FFFFFF" stroke="#D4DAE1" stroke-width="1.5"/>
  <text x="796" y="214" font-family="ui-monospace, &#39;SF Mono&#39;, &#39;SFMono-Regular&#39;, Menlo, &#39;Cascadia Code&#39;, Consolas, monospace" font-size="23" font-weight="500" fill="#B26205" text-anchor="start" letter-spacing="0">---</text>
  <text x="796" y="258" font-family="ui-monospace, &#39;SF Mono&#39;, &#39;SFMono-Regular&#39;, Menlo, &#39;Cascadia Code&#39;, Consolas, monospace" font-size="23" font-weight="500" fill="#161C23" text-anchor="start" letter-spacing="0">title: <tspan fill="#46525E">Hello, world</tspan></text>
  <text x="796" y="302" font-family="ui-monospace, &#39;SF Mono&#39;, &#39;SFMono-Regular&#39;, Menlo, &#39;Cascadia Code&#39;, Consolas, monospace" font-size="23" font-weight="500" fill="#161C23" text-anchor="start" letter-spacing="0">draft: <tspan fill="#46525E">false</tspan></text>
  <text x="796" y="346" font-family="ui-monospace, &#39;SF Mono&#39;, &#39;SFMono-Regular&#39;, Menlo, &#39;Cascadia Code&#39;, Consolas, monospace" font-size="23" font-weight="500" fill="#B26205" text-anchor="start" letter-spacing="0">---</text>
  <text x="796" y="434" font-family="ui-monospace, &#39;SF Mono&#39;, &#39;SFMono-Regular&#39;, Menlo, &#39;Cascadia Code&#39;, Consolas, monospace" font-size="23" font-weight="700" fill="#161C23" text-anchor="start" letter-spacing="0"># Hello, world</text>
</svg>